<svg data-v-fde0c5aa="" xmlns="http://www.w3.org/2000/svg" viewBox="0 0 300 300" class="iconLeft"><!----><defs data-v-fde0c5aa=""><!----></defs><rect data-v-fde0c5aa="" fill="transparent" x="0" y="0" width="300px" height="300px" class="logo-background-square"></rect><defs data-v-fde0c5aa=""><!----></defs><g data-v-fde0c5aa="" id="3fddfb38-988a-4924-be1f-3b171b33188f" fill="#FFFFFF" transform="matrix(2.309414052508829,0,0,2.309414052508829,97.76366212299574,125.5894936191517)"><path d="M4.07 14.52C6.24 14.52 7.52 13.34 7.52 11.54C7.52 10.04 6.66 9.18 4.75 8.76L3.92 8.60C2.76 8.34 2.21 7.95 2.21 7.08C2.21 6.12 2.93 5.60 4.12 5.60C5.22 5.60 5.94 6.05 6.45 6.76L7.45 5.96C6.71 4.96 5.66 4.41 4.19 4.41C2.18 4.41 0.87 5.40 0.87 7.14C0.87 8.67 1.83 9.49 3.67 9.87L4.49 10.04C5.71 10.30 6.17 10.75 6.17 11.61C6.17 12.64 5.46 13.33 4.13 13.33C3.04 13.33 2.23 12.85 1.54 11.97L0.57 12.84C1.36 13.87 2.48 14.52 4.07 14.52ZM13.97 17.15L15.27 17.15L15.27 7.10L13.97 7.10L13.97 8.29L13.92 8.29C13.58 7.39 12.82 6.93 11.83 6.93C10.01 6.93 8.92 8.37 8.92 10.72C8.92 13.08 10.01 14.52 11.83 14.52C12.82 14.52 13.58 14.06 13.92 13.16L13.97 13.16ZM12.21 13.38C11.05 13.38 10.30 12.56 10.30 11.34L10.30 10.11C10.30 8.89 11.05 8.06 12.21 8.06C13.19 8.06 13.97 8.62 13.97 9.39L13.97 12.05C13.97 12.82 13.19 13.38 12.21 13.38ZM22.01 14.35L23.31 14.35L23.31 7.10L22.01 7.10L22.01 12.05C22.01 12.96 21.17 13.38 20.34 13.38C19.32 13.38 18.80 12.75 18.80 11.54L18.80 7.10L17.50 7.10L17.50 11.73C17.50 13.50 18.42 14.52 19.91 14.52C21.11 14.52 21.67 13.86 21.94 13.16L22.01 13.16ZM31.63 14.35L31.63 13.24L30.81 13.24L30.81 9.42C30.81 7.85 29.78 6.93 27.97 6.93C26.63 6.93 25.77 7.56 25.34 8.34L26.12 9.06C26.50 8.44 27.05 8.02 27.90 8.02C28.99 8.02 29.51 8.57 29.51 9.53L29.51 10.19L28.14 10.19C26.07 10.19 25.05 10.95 25.05 12.35C25.05 13.68 25.93 14.52 27.44 14.52C28.48 14.52 29.25 14.04 29.54 13.15L29.61 13.15C29.71 13.85 30.09 14.35 30.88 14.35ZM27.73 13.47C26.92 13.47 26.40 13.09 26.40 12.42L26.40 12.14C26.40 11.47 26.94 11.10 28.13 11.10L29.51 11.10L29.51 12.22C29.51 12.95 28.76 13.47 27.73 13.47ZM37.77 14.35L39.07 14.35L39.07 3.99L37.77 3.99L37.77 8.29L37.72 8.29C37.38 7.39 36.62 6.93 35.63 6.93C33.81 6.93 32.72 8.37 32.72 10.72C32.72 13.08 33.81 14.52 35.63 14.52C36.62 14.52 37.38 14.06 37.72 13.16L37.77 13.16ZM36.01 13.38C34.85 13.38 34.10 12.56 34.10 11.34L34.10 10.11C34.10 8.89 34.85 8.06 36.01 8.06C36.99 8.06 37.77 8.62 37.77 9.39L37.77 12.05C37.77 12.82 36.99 13.38 36.01 13.38ZM44.30 14.52C46.47 14.52 47.74 13.34 47.74 11.54C47.74 10.04 46.89 9.18 44.97 8.76L44.14 8.60C42.98 8.34 42.43 7.95 42.43 7.08C42.43 6.12 43.15 5.60 44.34 5.60C45.44 5.60 46.16 6.05 46.68 6.76L47.67 5.96C46.93 4.96 45.88 4.41 44.41 4.41C42.41 4.41 41.09 5.40 41.09 7.14C41.09 8.67 42.06 9.49 43.89 9.87L44.72 10.04C45.93 10.30 46.40 10.75 46.40 11.61C46.40 12.64 45.68 13.33 44.35 13.33C43.26 13.33 42.45 12.85 41.76 11.97L40.80 12.84C41.58 13.87 42.70 14.52 44.30 14.52ZM52.44 11.73L52.02 13.09L51.95 13.09L51.58 11.73L49.97 7.10L48.66 7.10L51.35 14.64L50.86 16.04L49.67 16.04L49.67 17.15L50.39 17.15C51.49 17.15 51.84 16.84 52.18 15.93L55.33 7.10L54.07 7.10ZM57.99 14.35L57.99 9.38C57.99 8.50 58.81 8.06 59.67 8.06C60.69 8.06 61.19 8.69 61.19 9.91L61.19 14.35L62.50 14.35L62.50 9.72C62.50 7.95 61.59 6.93 60.10 6.93C59.01 6.93 58.39 7.49 58.06 8.29L57.99 8.29L57.99 7.10L56.69 7.10L56.69 14.35ZM67.45 14.52C68.84 14.52 69.79 13.85 70.25 12.75L69.30 12.17C68.94 12.95 68.33 13.40 67.45 13.40C66.21 13.40 65.58 12.54 65.58 11.35L65.58 10.09C65.58 8.90 66.21 8.05 67.45 8.05C68.29 8.05 68.88 8.48 69.12 9.20L70.20 8.67C69.78 7.63 68.88 6.93 67.45 6.93C65.38 6.93 64.19 8.40 64.19 10.72C64.19 13.05 65.38 14.52 67.45 14.52Z"></path></g><defs data-v-fde0c5aa=""><linearGradient data-v-fde0c5aa="" gradientTransform="rotate(25)" id="606a61bd-58da-48dc-b28a-723dd92ea605" x1="0%" y1="0%" x2="100%" y2="0%"><stop data-v-fde0c5aa="" offset="0%" stop-color="#0D7CE9" stop-opacity="1"></stop><stop data-v-fde0c5aa="" offset="100%" stop-color="#15CFF1" stop-opacity="1"></stop></linearGradient></defs><g data-v-fde0c5aa="" id="5126d22e-deb0-40fd-ac67-b653193c4cec" stroke="none" fill="url(#606a61bd-58da-48dc-b28a-723dd92ea605)" transform="matrix(0.6844737046106226,0,0,0.6844737046106226,28.815693034570103,115.76188082995819)"><path d="M75 16.72a8.63 8.63 0 00-4.56 16L58 58.69a12.71 12.71 0 00-13.5 2.42L28.51 47a6.55 6.55 0 001.09-3.63 6.63 6.63 0 10-3.28 5.71l16.21 14.3a12.79 12.79 0 1018.1-3.21l12.59-26.36A8.64 8.64 0 1075 16.72zM19.36 43.34A3.62 3.62 0 1123 47a3.62 3.62 0 01-3.64-3.66zM62.92 70.5a9.78 9.78 0 11-9.78-9.78 9.79 9.79 0 019.78 9.78zM75 31a5.64 5.64 0 115.64-5.64A5.65 5.65 0 0175 31z"></path></g><!----></svg>